# xmcd
# 
# Track frame offsets:
#     150
#     18604
#     36256
#     54927
#     71273
#     91464
#     110547
#     129833
#     148687
#     164532
#     183940
#     203061
#     221463
#     240893
# 
# Disc length: 3623
# 
# Revision: 0
# Processed by: cddbd v1.5.2PL0 Copyright (c) Steve Scherf et al.
# Submitted via: BonkEnc v1.0.5
# 
DISCID=ba0e250e
DTITLE=дамтгс вягстос - MAYA MAYA
DYEAR=2004
DGENRE=ROCK
TTITLE0=Unknown1
TTITLE1=Unknown2
TTITLE2=Unknown3
TTITLE3=Unknown4
TTITLE4=Unknown5
TTITLE5=Unknown6
TTITLE6=Unknown7
TTITLE7=Unknown8
TTITLE8=Unknown9
TTITLE9=Unknown10
TTITLE10=Unknown11
TTITLE11=Unknown12
TTITLE12=Unknown13
TTITLE13=Unknown14
EXTD=www.sonymusic.gr, www.christosdantis.com\n
EXTT0=
EXTT1=
EXTT2=
EXTT3=
EXTT4=
EXTT5=
EXTT6=
EXTT7=
EXTT8=
EXTT9=
EXTT10=
EXTT11=
EXTT12=
EXTT13=
PLAYORDER=
